<svg xmlns="http://www.w3.org/2000/svg" viewBox="0 0 24 24" fill="none">
  <path d="M12 15.5a3.5 3.5 0 1 0 0-7 3.5 3.5 0 0 0 0 7Z" stroke="#d8d4c8" stroke-width="1.8"/>
  <path d="M19.4 15a1.7 1.7 0 0 0 .34 1.88l.06.06-1.42 1.42-.06-.06a1.7 1.7 0 0 0-1.88-.34 1.7 1.7 0 0 0-1.03 1.56V20h-2v-.08A1.7 1.7 0 0 0 12.35 18a1.7 1.7 0 0 0-1.88.34l-.06.06L9 16.98l.06-.06A1.7 1.7 0 0 0 9.4 15a1.7 1.7 0 0 0-1.56-1.03H7v-2h.08A1.7 1.7 0 0 0 9 10.9a1.7 1.7 0 0 0-.34-1.88L8.6 8.96 10.02 7.54l.06.06a1.7 1.7 0 0 0 1.88.34A1.7 1.7 0 0 0 13 6.38V6h2v.08A1.7 1.7 0 0 0 16.06 8a1.7 1.7 0 0 0 1.88-.34l.06-.06 1.42 1.42-.06.06a1.7 1.7 0 0 0-.34 1.88 1.7 1.7 0 0 0 1.56 1.03H21v2h-.08A1.7 1.7 0 0 0 19.4 15Z" stroke="#d8d4c8" stroke-width="1.4" stroke-linejoin="round"/>
</svg>
